<svg width="248" height="131" viewBox="0 0 248 131" fill="none" xmlns="http://www.w3.org/2000/svg">
<rect width="248" height="131" fill="#D9D9D9"/>
<path d="M79.0568 70V61.2727H82.108C82.7159 61.2727 83.2173 61.3778 83.6122 61.5881C84.0071 61.7955 84.3011 62.0753 84.4943 62.4276C84.6875 62.777 84.7841 63.1648 84.7841 63.5909C84.7841 63.9659 84.7173 64.2756 84.5838 64.5199C84.4531 64.7642 84.2798 64.9574 84.0639 65.0994C83.8509 65.2415 83.6193 65.3466 83.3693 65.4148V65.5C83.6364 65.517 83.9048 65.6108 84.1747 65.7812C84.4446 65.9517 84.6705 66.196 84.8523 66.5142C85.0341 66.8324 85.125 67.2216 85.125 67.6818C85.125 68.1193 85.0256 68.5128 84.8267 68.8622C84.6278 69.2116 84.3139 69.4886 83.8849 69.6932C83.456 69.8977 82.8977 70 82.2102 70H79.0568ZM80.1136 69.0625H82.2102C82.9006 69.0625 83.3906 68.929 83.6804 68.6619C83.973 68.392 84.1193 68.0653 84.1193 67.6818C84.1193 67.3864 84.044 67.1136 83.8935 66.8636C83.7429 66.6108 83.5284 66.4091 83.25 66.2585C82.9716 66.1051 82.642 66.0284 82.2614 66.0284H80.1136V69.0625ZM80.1136 65.108H82.0739C82.392 65.108 82.679 65.0455 82.9347 64.9205C83.1932 64.7955 83.3977 64.6193 83.5483 64.392C83.7017 64.1648 83.7784 63.8977 83.7784 63.5909C83.7784 63.2074 83.6449 62.8821 83.3778 62.6151C83.1108 62.3452 82.6875 62.2102 82.108 62.2102H80.1136V65.108ZM87.5945 65.8239H89.4695C90.2365 65.8239 90.8232 66.0185 91.2294 66.4077C91.6357 66.7969 91.8388 67.2898 91.8388 67.8864C91.8388 68.2784 91.7479 68.6349 91.5661 68.956C91.3842 69.2741 91.1172 69.5284 90.7649 69.7188C90.4126 69.9062 89.9808 70 89.4695 70H86.7251V63.4545H87.7308V69.0625H89.4695C89.8672 69.0625 90.1939 68.9574 90.4496 68.7472C90.7053 68.5369 90.8331 68.267 90.8331 67.9375C90.8331 67.5909 90.7053 67.3082 90.4496 67.0895C90.1939 66.8707 89.8672 66.7614 89.4695 66.7614H87.5945V65.8239ZM92.8786 70V63.4545H93.8842V70H92.8786ZM100.583 61L101.094 61.6136C100.896 61.8068 100.665 61.9418 100.404 62.0185C100.143 62.0952 99.8473 62.142 99.5178 62.1591C99.1882 62.1761 98.8217 62.1932 98.4183 62.2102C97.9638 62.2273 97.5874 62.3381 97.2891 62.5426C96.9908 62.7472 96.7607 63.0426 96.5987 63.429C96.4368 63.8153 96.3331 64.2898 96.2876 64.8523H96.3729C96.5945 64.4432 96.9013 64.142 97.2933 63.9489C97.6854 63.7557 98.1058 63.6591 98.5547 63.6591C99.0661 63.6591 99.5263 63.7784 99.9354 64.017C100.344 64.2557 100.668 64.6094 100.907 65.0781C101.146 65.5469 101.265 66.125 101.265 66.8125C101.265 67.4972 101.143 68.0881 100.898 68.5852C100.657 69.0824 100.317 69.4659 99.88 69.7358C99.4453 70.0028 98.9354 70.1364 98.3501 70.1364C97.7649 70.1364 97.2521 69.9986 96.8118 69.723C96.3714 69.4446 96.0291 69.0327 95.7848 68.4872C95.5405 67.9389 95.4183 67.2614 95.4183 66.4545V65.7557C95.4183 64.2983 95.6655 63.1932 96.1598 62.4403C96.657 61.6875 97.4041 61.2983 98.4013 61.2727C98.7536 61.2614 99.0675 61.2585 99.343 61.2642C99.6186 61.2699 99.8587 61.2571 100.063 61.2259C100.268 61.1946 100.441 61.1193 100.583 61ZM98.3501 69.233C98.745 69.233 99.0845 69.1335 99.3686 68.9347C99.6555 68.7358 99.8757 68.456 100.029 68.0952C100.183 67.7315 100.259 67.304 100.259 66.8125C100.259 66.3352 100.181 65.929 100.025 65.5938C99.8714 65.2585 99.6513 65.0028 99.3643 64.8267C99.0774 64.6506 98.7337 64.5625 98.3331 64.5625C98.0405 64.5625 97.7777 64.6122 97.5447 64.7116C97.3118 64.8111 97.1129 64.9574 96.9482 65.1506C96.7834 65.3437 96.6555 65.5795 96.5646 65.858C96.4766 66.1364 96.4297 66.4545 96.424 66.8125C96.424 67.5455 96.5959 68.1321 96.9396 68.5724C97.2834 69.0128 97.7536 69.233 98.3501 69.233ZM105.548 70.1364C104.917 70.1364 104.373 69.9972 103.915 69.7188C103.461 69.4375 103.11 69.0455 102.863 68.5426C102.619 68.0369 102.496 67.4489 102.496 66.7784C102.496 66.108 102.619 65.517 102.863 65.0057C103.11 64.4915 103.454 64.0909 103.894 63.804C104.337 63.5142 104.854 63.3693 105.445 63.3693C105.786 63.3693 106.123 63.4261 106.455 63.5398C106.788 63.6534 107.09 63.8381 107.363 64.0938C107.636 64.3466 107.853 64.6818 108.015 65.0994C108.177 65.517 108.258 66.0312 108.258 66.642V67.0682H103.212V66.1989H107.235C107.235 65.8295 107.161 65.5 107.013 65.2102C106.869 64.9205 106.661 64.6918 106.391 64.5241C106.124 64.3565 105.809 64.2727 105.445 64.2727C105.045 64.2727 104.698 64.3722 104.406 64.571C104.116 64.767 103.893 65.0227 103.737 65.3381C103.58 65.6534 103.502 65.9915 103.502 66.3523V66.9318C103.502 67.4261 103.587 67.8452 103.758 68.1889C103.931 68.5298 104.171 68.7898 104.478 68.9688C104.785 69.1449 105.141 69.233 105.548 69.233C105.812 69.233 106.05 69.196 106.263 69.1222C106.479 69.0455 106.665 68.9318 106.822 68.7812C106.978 68.6278 107.099 68.4375 107.184 68.2102L108.156 68.483C108.053 68.8125 107.881 69.1023 107.64 69.3523C107.398 69.5994 107.1 69.7926 106.745 69.9318C106.39 70.0682 105.991 70.1364 105.548 70.1364ZM109.788 72.4545V63.4545H110.759V64.4943H110.879C110.952 64.3807 111.055 64.2358 111.185 64.0597C111.319 63.8807 111.509 63.7216 111.756 63.5824C112.006 63.4403 112.344 63.3693 112.771 63.3693C113.322 63.3693 113.808 63.5071 114.228 63.7827C114.648 64.0582 114.977 64.4489 115.212 64.9545C115.448 65.4602 115.566 66.0568 115.566 66.7443C115.566 67.4375 115.448 68.0384 115.212 68.5469C114.977 69.0526 114.65 69.4446 114.232 69.723C113.815 69.9986 113.333 70.1364 112.788 70.1364C112.367 70.1364 112.031 70.0668 111.778 69.9276C111.525 69.7855 111.33 69.625 111.194 69.446C111.058 69.2642 110.952 69.1136 110.879 68.9943H110.793V72.4545H109.788ZM110.776 66.7273C110.776 67.2216 110.849 67.6577 110.994 68.0355C111.138 68.4105 111.35 68.7045 111.629 68.9176C111.907 69.1278 112.248 69.233 112.651 69.233C113.072 69.233 113.423 69.1222 113.704 68.9006C113.988 68.6761 114.201 68.375 114.343 67.9972C114.488 67.6165 114.56 67.1932 114.56 66.7273C114.56 66.267 114.489 65.8523 114.347 65.483C114.208 65.1108 113.996 64.8168 113.712 64.6009C113.431 64.3821 113.077 64.2727 112.651 64.2727C112.242 64.2727 111.898 64.3764 111.62 64.5838C111.342 64.7884 111.131 65.0753 110.989 65.4446C110.847 65.8111 110.776 66.2386 110.776 66.7273ZM118.106 68.517L121.259 63.4545H122.418V70H121.413V64.9375L118.276 70H117.1V63.4545H118.106V68.517ZM123.37 64.392V63.4545H128.688V64.392H126.54V70H125.534V64.392H123.37ZM132.559 70.1364C131.929 70.1364 131.385 69.9972 130.927 69.7188C130.473 69.4375 130.122 69.0455 129.875 68.5426C129.63 68.0369 129.508 67.4489 129.508 66.7784C129.508 66.108 129.63 65.517 129.875 65.0057C130.122 64.4915 130.466 64.0909 130.906 63.804C131.349 63.5142 131.866 63.3693 132.457 63.3693C132.798 63.3693 133.135 63.4261 133.467 63.5398C133.799 63.6534 134.102 63.8381 134.375 64.0938C134.647 64.3466 134.865 64.6818 135.027 65.0994C135.189 65.517 135.27 66.0312 135.27 66.642V67.0682H130.224V66.1989H134.247C134.247 65.8295 134.173 65.5 134.025 65.2102C133.88 64.9205 133.673 64.6918 133.403 64.5241C133.136 64.3565 132.821 64.2727 132.457 64.2727C132.056 64.2727 131.71 64.3722 131.417 64.571C131.127 64.767 130.904 65.0227 130.748 65.3381C130.592 65.6534 130.514 65.9915 130.514 66.3523V66.9318C130.514 67.4261 130.599 67.8452 130.77 68.1889C130.943 68.5298 131.183 68.7898 131.49 68.9688C131.797 69.1449 132.153 69.233 132.559 69.233C132.824 69.233 133.062 69.196 133.275 69.1222C133.491 69.0455 133.677 68.9318 133.833 68.7812C133.99 68.6278 134.11 68.4375 134.196 68.2102L135.167 68.483C135.065 68.8125 134.893 69.1023 134.652 69.3523C134.41 69.5994 134.112 69.7926 133.757 69.9318C133.402 70.0682 133.002 70.1364 132.559 70.1364ZM142.833 72.233V61.2727H143.839V72.233H142.833ZM142.833 70.1364C142.39 70.1364 141.987 70.0568 141.623 69.8977C141.26 69.7358 140.947 69.5071 140.686 69.2116C140.424 68.9134 140.223 68.5568 140.081 68.142C139.939 67.7273 139.868 67.267 139.868 66.7614C139.868 66.25 139.939 65.7869 140.081 65.3722C140.223 64.9545 140.424 64.5966 140.686 64.2983C140.947 64 141.26 63.7713 141.623 63.6122C141.987 63.4503 142.39 63.3693 142.833 63.3693H143.14V70.1364H142.833ZM142.833 69.233H143.004V64.2727H142.833C142.498 64.2727 142.207 64.3409 141.96 64.4773C141.713 64.6108 141.508 64.794 141.346 65.027C141.187 65.2571 141.068 65.5213 140.988 65.8196C140.912 66.1179 140.873 66.4318 140.873 66.7614C140.873 67.1989 140.943 67.6051 141.082 67.9801C141.221 68.3551 141.436 68.6577 141.725 68.8878C142.015 69.1179 142.385 69.233 142.833 69.233ZM143.839 70.1364H143.532V63.3693H143.839C144.282 63.3693 144.686 63.4503 145.049 63.6122C145.413 63.7713 145.725 64 145.987 64.2983C146.248 64.5966 146.45 64.9545 146.592 65.3722C146.734 65.7869 146.805 66.25 146.805 66.7614C146.805 67.267 146.734 67.7273 146.592 68.142C146.45 68.5568 146.248 68.9134 145.987 69.2116C145.725 69.5071 145.413 69.7358 145.049 69.8977C144.686 70.0568 144.282 70.1364 143.839 70.1364ZM143.839 69.233C144.177 69.233 144.468 69.1676 144.713 69.0369C144.96 68.9034 145.163 68.7216 145.322 68.4915C145.484 68.2585 145.603 67.9943 145.68 67.6989C145.76 67.4006 145.799 67.0881 145.799 66.7614C145.799 66.3239 145.73 65.9162 145.591 65.5384C145.451 65.1605 145.237 64.8551 144.947 64.6222C144.657 64.3892 144.288 64.2727 143.839 64.2727H143.669V69.233H143.839ZM150.268 70.1534C149.854 70.1534 149.477 70.0753 149.139 69.919C148.801 69.7599 148.533 69.5312 148.334 69.233C148.135 68.9318 148.036 68.5682 148.036 68.142C148.036 67.767 148.109 67.4631 148.257 67.2301C148.405 66.9943 148.602 66.8097 148.849 66.6761C149.097 66.5426 149.369 66.4432 149.668 66.3778C149.969 66.3097 150.271 66.2557 150.575 66.2159C150.973 66.1648 151.295 66.1264 151.543 66.1009C151.793 66.0724 151.974 66.0256 152.088 65.9602C152.205 65.8949 152.263 65.7812 152.263 65.6193V65.5852C152.263 65.1648 152.148 64.8381 151.918 64.6051C151.69 64.3722 151.345 64.2557 150.882 64.2557C150.402 64.2557 150.026 64.3608 149.753 64.571C149.48 64.7812 149.288 65.0057 149.178 65.2443L148.223 64.9034C148.393 64.5057 148.621 64.196 148.905 63.9744C149.192 63.75 149.504 63.5937 149.842 63.5057C150.183 63.4148 150.518 63.3693 150.848 63.3693C151.058 63.3693 151.3 63.3949 151.572 63.446C151.848 63.4943 152.114 63.5952 152.369 63.7486C152.628 63.902 152.842 64.1335 153.013 64.4432C153.183 64.7528 153.268 65.1676 153.268 65.6875V70H152.263V69.1136H152.212C152.143 69.2557 152.03 69.4077 151.871 69.5696C151.712 69.7315 151.5 69.8693 151.236 69.983C150.972 70.0966 150.649 70.1534 150.268 70.1534ZM150.422 69.25C150.82 69.25 151.155 69.1719 151.428 69.0156C151.703 68.8594 151.911 68.6577 152.05 68.4105C152.192 68.1634 152.263 67.9034 152.263 67.6307V66.7102C152.22 66.7614 152.126 66.8082 151.982 66.8509C151.839 66.8906 151.675 66.9261 151.487 66.9574C151.303 66.9858 151.122 67.0114 150.946 67.0341C150.773 67.054 150.632 67.071 150.524 67.0852C150.263 67.1193 150.018 67.1747 149.791 67.2514C149.567 67.3253 149.385 67.4375 149.246 67.5881C149.109 67.7358 149.041 67.9375 149.041 68.1932C149.041 68.5426 149.17 68.8068 149.429 68.9858C149.69 69.1619 150.021 69.25 150.422 69.25ZM156.11 68.517L159.263 63.4545H160.422V70H159.417V64.9375L156.28 70H155.104V63.4545H156.11V68.517ZM158.598 61.2727H159.536C159.536 61.733 159.377 62.1094 159.059 62.402C158.74 62.6946 158.309 62.8409 157.763 62.8409C157.226 62.8409 156.799 62.6946 156.48 62.402C156.165 62.1094 156.007 61.733 156.007 61.2727H156.945C156.945 61.4943 157.006 61.6889 157.128 61.8565C157.253 62.0241 157.465 62.108 157.763 62.108C158.061 62.108 158.275 62.0241 158.402 61.8565C158.533 61.6889 158.598 61.4943 158.598 61.2727ZM161.685 70V69.0625H161.923C162.119 69.0625 162.283 69.0241 162.413 68.9474C162.544 68.8679 162.649 68.7301 162.729 68.5341C162.811 68.3352 162.874 68.0597 162.916 67.7074C162.962 67.3523 162.994 66.9006 163.014 66.3523L163.134 63.4545H167.497V70H166.491V64.392H164.088L163.986 66.7273C163.963 67.2642 163.915 67.7372 163.841 68.1463C163.77 68.5526 163.661 68.8935 163.513 69.169C163.368 69.4446 163.175 69.652 162.933 69.7912C162.692 69.9304 162.389 70 162.026 70H161.685Z" fill="#004381"/>
</svg>
