<svg width="114" height="114" viewBox="0 0 114 114" fill="none" xmlns="http://www.w3.org/2000/svg">
<path d="M92.9962 0C87.6121 0 82.2286 2.04111 78.1485 6.12306L11.7443 72.5214C10.4843 73.7814 9.5616 75.3482 9.07242 77.0683L0.172022 108.234C-0.274947 109.805 0.163683 111.494 1.31826 112.649C2.47281 113.803 4.16214 114.242 5.73258 113.795L36.9044 104.894C36.9064 104.893 36.9083 104.891 36.9103 104.889C38.6188 104.397 40.1818 103.486 41.4454 102.223L107.844 35.8184C116.007 27.655 116.007 14.2865 107.844 6.12309C103.764 2.04117 98.3803 0 92.9962 0ZM92.9962 8.94725C96.0586 8.94725 99.1167 10.1272 101.475 12.4863C101.477 12.4863 101.479 12.4863 101.481 12.4863C106.205 17.211 106.205 24.7304 101.481 29.4551L95.6622 35.2734L78.6935 18.3047L84.5118 12.4863C86.8698 10.1272 89.9338 8.94725 92.9962 8.94725ZM72.3302 24.6679L89.2989 41.6367L35.0763 95.8593C34.9004 96.034 34.6776 96.1678 34.4259 96.2402L11.047 102.92L17.7267 79.5351C17.7267 79.5331 17.7267 79.5312 17.7267 79.5292C17.7955 79.2873 17.9215 79.0708 18.1075 78.8847L72.3302 24.6679Z" fill="#004381"/>
</svg>
