<svg width="20" height="20" viewBox="0 0 20 20" fill="none" xmlns="http://www.w3.org/2000/svg">
<path d="M18.82 0.00145674C18.5985 0.0121449 18.3828 0.0799396 18.1884 0.16557C17.9959 0.250625 16.8878 0.770692 15.2513 1.54C13.6149 2.3093 11.4877 3.3111 9.37907 4.30448C5.16176 6.29123 1.01753 8.24606 1.01753 8.24606L1.04774 8.23336C1.04774 8.23336 0.797614 8.32529 0.544022 8.51958C0.417226 8.61672 0.280815 8.74214 0.16912 8.92498C0.0574258 9.10781 -0.0242255 9.36694 0.00654558 9.64101C0.114629 10.6037 1.02198 10.8767 1.02198 10.8767L1.02553 10.8787L5.07482 12.4026C5.17806 12.7813 6.30298 16.9097 6.55043 17.784C6.6871 18.2674 6.81501 18.5462 6.94843 18.7365C7.0152 18.8316 7.08517 18.9053 7.16253 18.9592C7.19327 18.9806 7.2256 18.9966 7.25759 19.0109C7.25827 19.0113 7.25869 19.0106 7.25937 19.0109C7.2633 19.0129 7.267 19.013 7.27092 19.0149L7.26026 19.0119C7.26769 19.0152 7.27503 19.0208 7.28247 19.0236C7.2969 19.0292 7.30575 19.029 7.32422 19.0334C7.78797 19.2115 8.17175 18.881 8.17175 18.881L8.18774 18.8673L10.6752 16.3305L14.7121 19.7914L14.7627 19.8168C15.4693 20.1618 16.1083 19.9694 16.4622 19.6527C16.8161 19.3361 16.9553 18.9279 16.9553 18.9279L16.9704 18.8849L19.9367 1.88483C20.0126 1.5045 20.0234 1.17575 19.9518 0.878679C19.8802 0.581607 19.7063 0.323366 19.4881 0.180234C19.2698 0.0370972 19.0415 -0.00923139 18.82 0.00145674ZM18.844 1.01835C18.934 1.01377 19.0007 1.02508 19.0217 1.03887C19.0427 1.05265 19.0521 1.05084 19.0723 1.1346C19.0925 1.21836 19.1034 1.39478 19.0483 1.6709L19.0466 1.67676L16.0971 18.5782C16.0901 18.5952 16.0287 18.7516 15.8883 18.8771C15.7452 19.0052 15.5859 19.1052 15.1634 18.9103L10.749 15.125L10.6246 15.0176L10.6219 15.0205L9.30179 13.9313L16.7207 4.3338C16.8372 4.18353 16.8624 3.97199 16.785 3.79384C16.7077 3.61568 16.5422 3.50422 16.3627 3.50934C16.2769 3.51179 16.1934 3.54092 16.122 3.59335L5.38665 11.4628L1.33114 9.93603C1.33114 9.93603 0.928426 9.68962 0.909154 9.51794C0.908085 9.50843 0.903332 9.51704 0.924255 9.48277C0.945183 9.44852 0.997783 9.39068 1.06373 9.34015C1.19563 9.2391 1.34624 9.17799 1.34624 9.17799L1.36134 9.17213L1.37644 9.1653C1.37644 9.1653 5.52089 7.21037 9.73798 5.22371C11.8465 4.23039 13.9734 3.22932 15.6094 2.46021C17.2449 1.69129 18.4268 1.13783 18.5268 1.0936C18.6408 1.04343 18.754 1.02294 18.844 1.01835ZM13.9241 6.40665L8.2979 13.6852L8.29524 13.6881C8.28645 13.6997 8.27815 13.7118 8.27036 13.7242C8.26144 13.7378 8.25314 13.7518 8.24549 13.7662C8.21388 13.8252 8.19362 13.8907 8.18596 13.9587C8.18596 13.96 8.18596 13.9613 8.18596 13.9626L7.45304 17.5867C7.44085 17.5475 7.43232 17.5332 7.41928 17.487V17.4861C7.18649 16.6636 6.12515 12.7701 5.97831 12.2316L13.9241 6.40665ZM8.93311 14.8779L9.9441 15.7121L8.45871 17.2262L8.93311 14.8779Z" fill="#004381"/>
</svg>
