<svg width="20" height="20" viewBox="0 0 20 20" fill="none" xmlns="http://www.w3.org/2000/svg">
<path d="M10.8386 0C10.4146 3.32597e-05 10.0707 0.297042 10.0698 0.663897C10.0698 0.663897 10.0614 3.90686 10.0533 7.15734C10.0492 8.78257 10.0443 10.4095 10.0413 11.6344C10.0383 12.8593 10.0368 13.6344 10.0368 13.6988C10.0368 14.9063 8.76932 15.8932 7.32488 15.8932C5.89194 15.8932 4.74811 14.9023 4.74811 13.6625C4.74811 12.4227 5.89194 11.433 7.32488 11.433C7.37342 11.433 7.47126 11.4468 7.63871 11.4642C7.85717 11.4869 8.07638 11.4275 8.24088 11.301C8.40538 11.1746 8.49939 10.9933 8.49913 10.8029V8.00833C8.4991 7.6571 8.1835 7.36641 7.77836 7.34443C7.65855 7.33791 7.50779 7.32494 7.32488 7.32494C3.2889 7.32494 0 10.1705 0 13.6625C0 17.1544 3.2889 20 7.32488 20C11.3607 20 14.6497 17.1544 14.6497 13.6625V7.64324C15.7681 8.41713 17.1619 8.90737 18.7011 8.90737C18.911 8.90737 19.1107 8.89661 19.3018 8.88139C19.6974 8.8498 20.0001 8.56258 20 8.21879V5.11239C20.0002 4.76351 19.6889 4.47374 19.2867 4.44849C16.8691 4.29842 14.9418 2.66891 14.6903 0.59634C14.6495 0.25759 14.3196 0.00019925 13.926 6.34379e-06L10.8386 0ZM11.606 1.33039H13.3599C13.9186 3.52466 15.9004 5.19809 18.4623 5.61777V7.5237C16.8179 7.45146 15.3736 6.7417 14.5236 5.62297C14.3369 5.3771 13.9857 5.26652 13.66 5.35105C13.3344 5.43559 13.1115 5.69515 13.1121 5.98934V13.6625C13.1121 16.4353 10.5298 18.6696 7.32487 18.6696C4.12003 18.6696 1.53765 16.4353 1.53765 13.6625C1.53765 11.0013 3.93698 8.88911 6.96148 8.71898V10.1663C4.87521 10.3343 3.21044 11.8153 3.21044 13.6625C3.21044 15.6209 5.06128 17.2236 7.32487 17.2236C9.57695 17.2236 11.5744 15.6896 11.5744 13.6988C11.5744 13.7314 11.5759 12.8619 11.5789 11.637C11.5819 10.4121 11.5869 8.78517 11.591 7.15993C11.5982 4.24179 11.6046 1.89527 11.606 1.33039Z" fill="#004381"/>
</svg>
